<svg xmlns="http://www.w3.org/2000/svg" version="1.1" xmlns:xlink="http://www.w3.org/1999/xlink" xmlns:svgjs="http://svgjs.dev/svgjs" width="1000" height="227" viewBox="0 0 1000 227"><g transform="matrix(1,0,0,1,-0.6060606060606233,-0.5289640643900668)"><svg viewBox="0 0 396 90" data-background-color="#ffffff" preserveAspectRatio="xMidYMid meet" height="227" width="1000" xmlns="http://www.w3.org/2000/svg" xmlns:xlink="http://www.w3.org/1999/xlink"><g id="tight-bounds" transform="matrix(1,0,0,1,0.2400000000000091,0.20972143522072884)"><svg viewBox="0 0 395.52 89.5805534910958" height="89.5805534910958" width="395.52"><g><svg viewBox="0 0 1091.448313162281 247.2" height="89.5805534910958" width="395.52"><g><svg viewBox="0 0 1091.448313162281 247.2" height="247.2" width="1091.448313162281"><g><svg viewBox="0 0 1091.448313162281 247.2" height="247.2" width="1091.448313162281"><g><svg viewBox="0 0 1091.448313162281 247.2" height="247.2" width="1091.448313162281"><g><svg><g></g><g></g></svg></g><g><svg><g></g><g><svg></svg></g></svg></g><g id="text-0"><svg viewBox="0 0 1091.448313162281 247.2" height="247.2" width="1091.448313162281"><g transform="matrix(1,0,0,1,0,97.66993006993007)"><svg width="247.19999999999996" viewBox="2.75 -35 171.58999633789062 36" height="51.860139860139846" data-palette-color="#3f4348"><path d="M28.8-4.5L28.8-4.5Q32.6-8.3 33.05-16.4L33.05-16.4 34.05-35 38.55-35 37.55-16.2Q37.2-9.6 35.23-5.7 33.25-1.8 28.7 1L28.7 1Q24.7-1.85 23.15-6.03 21.6-10.2 20.75-17.35L20.75-17.35 20.55-17.35Q20.15-9.9 18.63-6.25 17.1-2.6 12.6 1L12.6 1Q8.05-1.8 6.08-5.7 4.1-9.6 3.75-16.2L3.75-16.2 2.75-35 7.25-35 8.25-16.4Q8.7-8.3 12.5-4.5L12.5-4.5Q14.95-6.6 16.15-10.78 17.35-14.95 18.4-24L18.4-24 22.9-24Q24.3-16.2 25.45-11.9 26.6-7.6 27.23-6.45 27.85-5.3 28.8-4.5ZM49.5-15.9L49.5 0 44.8 0 44.8-35 49.5-35 49.5-20.3 64.7-20.3 64.7-35 69.4-35 69.4 0 64.7 0 64.7-15.9 49.5-15.9ZM80.35-12.8L80.35 0 75.9 0 75.9-22Q75.9-27.4 79.37-31.2 82.85-35 88.35-35L88.35-35 99.8-35 99.8 0 95.1 0 95.1-30.6 88.35-30.6Q84.7-30.6 82.52-28.45 80.35-26.3 80.35-21.6L80.35-21.6 80.35-17.35Q83.15-20.3 88.35-20.3L88.35-20.3 92.9-20.3 92.9-15.9 88.35-15.9Q85.45-15.9 83.62-15.2 81.8-14.5 80.35-12.8L80.35-12.8ZM113.19-30.6L104.54-30.6 104.54-35 126.54-35 126.54-30.6 117.89-30.6 117.89 0 113.19 0 113.19-30.6ZM147.64-35L147.64 0 142.94 0 142.94-35 147.64-35ZM163.14-35L172.29-35 172.29-30.6 163.44-30.6Q158.39-30.6 158.39-26.5L158.39-26.5Q158.39-24.3 160.61-22.78 162.84-21.25 166.64-19.85L166.64-19.85Q168.34-19.2 169.54-18.53 170.74-17.85 171.94-16.75 173.14-15.65 173.74-13.93 174.34-12.2 174.34-9.95L174.34-9.95Q174.34-7.45 173.29-5.48 172.24-3.5 170.59-2.38 168.94-1.25 167.21-0.68 165.49-0.1 163.84-0.05L163.84-0.05Q163.14 0 161.84 0L161.84 0 154.04 0 154.04-4.4 161.69-4.4Q165.09-4.4 167.24-5.83 169.39-7.25 169.39-10L169.39-10Q169.39-11.35 168.79-12.38 168.19-13.4 167.06-14.15 165.94-14.9 164.76-15.45 163.59-16 161.94-16.6L161.94-16.6Q161.49-16.75 161.24-16.85L161.24-16.85Q153.39-19.85 153.39-26.65L153.39-26.65Q153.39-30.85 156.09-32.93 158.79-35 163.14-35L163.14-35Z" opacity="1" transform="matrix(1,0,0,1,0,0)" fill="#3f4348" class="undefined-p-0"></path></svg></g><g><svg xmlns="http://www.w3.org/2000/svg" xmlns:xlink="http://www.w3.org/1999/xlink" version="1.1" x="261.143" y="0" viewBox="16.659996032714844 6.219999313354492 66.68000030517578 87.53299713134766" enable-background="new 0 0 100 100" xml:space="preserve" height="247.2" width="188.3095131622814" class="icon-c-0" data-fill-palette-color="accent" id="c-0"><path fill="none" d="M66.54 26.22c-2.55 0-4.67-1.89-5.02-4.34H38.47c-0.35 2.45-2.47 4.34-5.02 4.34-2.56 0-4.68-1.89-5.03-4.34h-7.18v6.48h57.52v-6.48h-7.2C71.21 24.33 69.1 26.22 66.54 26.22z"></path><path fill="none" d="M33.45 22.13c0.53 0 0.98-0.45 0.98-0.99V11.3c0-0.54-0.45-0.99-0.98-0.99-0.54 0-0.99 0.45-0.99 0.99v9.84C32.46 21.68 32.91 22.13 33.45 22.13z"></path><path fill="none" d="M25.885 89.721h48.23c2.712 0 4.918-2.207 4.918-4.918V39.677H20.966v45.125C20.966 87.514 23.173 89.721 25.885 89.721zM41.214 71.173h3.293V48.766c0-0.866 0.702-1.568 1.568-1.568h7.538c0.866 0 1.568 0.702 1.568 1.568v22.406h3.293c1.148 0 1.723 1.388 0.911 2.2l-8.321 8.321c-0.674 0.674-1.767 0.674-2.442 0l-8.321-8.321C39.491 72.561 40.066 71.173 41.214 71.173z"></path><path fill="none" d="M66.54 22.13c0.54 0 0.99-0.45 0.99-0.99V11.3c0-0.54-0.45-0.99-0.99-0.99-0.53 0-0.98 0.45-0.98 0.99v9.84C65.56 21.68 66.01 22.13 66.54 22.13z"></path><path d="M25.885 93.753h48.23c4.936 0 8.951-4.015 8.951-8.951V37.661c0-1.113-0.903-2.016-2.016-2.016h-62.1c-1.113 0-2.016 0.903-2.016 2.016v47.141C16.934 89.738 20.949 93.753 25.885 93.753zM20.966 39.677h58.067v45.125c0 2.712-2.207 4.918-4.918 4.918h-48.23c-2.712 0-4.918-2.207-4.918-4.918V39.677z" fill="#feb81e" data-fill-palette-color="accent"></path><path d="M81.05 17.3h-9.43v-6c0-2.8-2.27-5.08-5.08-5.08-2.8 0-5.08 2.28-5.08 5.08v6H38.53v-6c0-2.8-2.28-5.08-5.08-5.08-2.81 0-5.09 2.28-5.09 5.08v6h-9.41c-1.27 0-2.29 1.02-2.29 2.29v11.06c0 1.27 1.02 2.29 2.29 2.29h62.1c1.27 0 2.29-1.02 2.29-2.29V19.59C83.34 18.32 82.32 17.3 81.05 17.3zM65.56 11.3c0-0.54 0.45-0.99 0.98-0.99 0.54 0 0.99 0.45 0.99 0.99v9.84c0 0.54-0.45 0.99-0.99 0.99-0.53 0-0.98-0.45-0.98-0.99V11.3zM32.46 11.3c0-0.54 0.45-0.99 0.99-0.99 0.53 0 0.98 0.45 0.98 0.99v9.84c0 0.54-0.45 0.99-0.98 0.99-0.54 0-0.99-0.45-0.99-0.99V11.3zM78.76 28.36H21.24v-6.48h7.18c0.35 2.45 2.47 4.34 5.03 4.34 2.55 0 4.67-1.89 5.02-4.34h23.05c0.35 2.45 2.47 4.34 5.02 4.34 2.56 0 4.67-1.89 5.02-4.34h7.2V28.36z" fill="#feb81e" data-fill-palette-color="accent"></path><path d="M48.624 81.694c0.674 0.674 1.768 0.674 2.442 0l8.321-8.321c0.812-0.812 0.237-2.2-0.911-2.2h-3.293V48.766c0-0.866-0.702-1.568-1.568-1.568h-7.538c-0.866 0-1.568 0.702-1.568 1.568v22.406h-3.293c-1.148 0-1.723 1.388-0.911 2.2L48.624 81.694z" fill="#feb81e" data-fill-palette-color="accent"></path></svg></g><g transform="matrix(1,0,0,1,463.39551316228136,46.71520000000001)"><svg width="628.0527999999998" viewBox="1.25 -35.5 147.99000549316406 36" height="152.76959999999997" data-palette-color="#3f4348"><path d="M9.9-30.6L1.25-30.6 1.25-35 23.25-35 23.25-30.6 14.6-30.6 14.6 0 9.9 0 9.9-30.6ZM55.35-17.35L55.35-17.35Q55.3-20.15 54.52-22.65 53.75-25.15 52.27-27.03 50.8-28.9 48.7-30 46.6-31.1 43.95-31.1L43.95-31.1Q41.3-31.1 39.2-30 37.1-28.9 35.62-27.03 34.15-25.15 33.37-22.65 32.6-20.15 32.55-17.35L32.55-17.35Q32.6-14.5 33.37-12.05 34.15-9.6 35.62-7.8 37.1-6 39.2-4.95 41.3-3.9 43.95-3.9L43.95-3.9Q46.6-3.9 48.7-4.95 50.8-6 52.27-7.8 53.75-9.6 54.52-12.05 55.3-14.5 55.35-17.35ZM27.5-17.35L27.5-17.35Q27.55-21.5 28.75-24.85 29.95-28.2 32.1-30.58 34.25-32.95 37.25-34.23 40.25-35.5 43.95-35.5L43.95-35.5Q47.6-35.5 50.62-34.23 53.65-32.95 55.8-30.58 57.95-28.2 59.15-24.85 60.35-21.5 60.4-17.35L60.4-17.35Q60.35-13.2 59.17-9.9 58-6.6 55.85-4.3 53.7-2 50.67-0.75 47.65 0.5 43.95 0.5L43.95 0.5Q40.25 0.5 37.22-0.75 34.2-2 32.05-4.3 29.9-6.6 28.72-9.9 27.55-13.2 27.5-17.35ZM90.95-17.5L90.95-17.5Q90.9-9.15 86.32-4.58 81.75 0 73.7 0L73.7 0 66.9 0 66.9-35 73.7-35Q81.75-35 86.32-30.43 90.9-25.85 90.95-17.5ZM71.6-4.4L74.3-4.4Q79.85-4.4 82.82-8.08 85.8-11.75 85.9-17.5L85.9-17.5Q85.8-23.25 82.82-26.93 79.85-30.6 74.3-30.6L74.3-30.6 71.6-30.6 71.6-4.4ZM101.39-12.8L101.39 0 96.94 0 96.94-22Q96.94-27.4 100.42-31.2 103.89-35 109.39-35L109.39-35 120.84-35 120.84 0 116.14 0 116.14-30.6 109.39-30.6Q105.74-30.6 103.57-28.45 101.39-26.3 101.39-21.6L101.39-21.6 101.39-17.35Q104.19-20.3 109.39-20.3L109.39-20.3 113.94-20.3 113.94-15.9 109.39-15.9Q106.49-15.9 104.67-15.2 102.84-14.5 101.39-12.8L101.39-12.8ZM144.54-35L149.24-35 149.24-32.5Q149.24-26.4 146.97-21.33 144.69-16.25 140.34-13.6L140.34-13.6 140.34 0 135.64 0 135.64-13.5Q131.29-16.1 128.94-21.08 126.59-26.05 126.59-32.05L126.59-32.05 126.59-35 131.39-35 131.39-32.5Q131.39-27.35 132.87-23.68 134.34-20 137.99-17.65L137.99-17.65Q144.54-22 144.54-32.5L144.54-32.5 144.54-35Z" opacity="1" transform="matrix(1,0,0,1,0,0)" fill="#3f4348" class="undefined-p-1"></path></svg></g></svg></g></svg></g></svg></g></svg></g></svg></g><defs></defs></svg><rect width="395.52" height="89.5805534910958" fill="none" stroke="none" visibility="hidden"></rect></g></svg></g></svg>